<svg>
  <symbol id="del" viewBox="0 0 512 512">
    <g>
      <path d="m256 512c-141.160156 0-256-114.839844-256-256s114.839844-256 256-256 256 114.839844 256 256-114.839844 256-256 256zm0-475.429688c-120.992188 0-219.429688 98.4375-219.429688 219.429688s98.4375 219.429688 219.429688 219.429688 219.429688-98.4375 219.429688-219.429688-98.4375-219.429688-219.429688-219.429688zm0 0"/><path d="m347.429688 365.714844c-4.679688 0-9.359376-1.785156-12.929688-5.359375l-182.855469-182.855469c-7.144531-7.144531-7.144531-18.714844 0-25.855469 7.140625-7.140625 18.714844-7.144531 25.855469 0l182.855469 182.855469c7.144531 7.144531 7.144531 18.714844 0 25.855469-3.570313 3.574219-8.246094 5.359375-12.925781 5.359375zm0 0"/><path d="m164.570312 365.714844c-4.679687 0-9.355468-1.785156-12.925781-5.359375-7.144531-7.140625-7.144531-18.714844 0-25.855469l182.855469-182.855469c7.144531-7.144531 18.714844-7.144531 25.855469 0 7.140625 7.140625 7.144531 18.714844 0 25.855469l-182.855469 182.855469c-3.570312 3.574219-8.25 5.359375-12.929688 5.359375zm0 0"/>
    </g>
  </symbol>
  <symbol id="star"  viewBox="0 0 512.002 512.002">
	  <g>
		<path d="M511.267,197.258c-1.764-5.431-6.457-9.389-12.107-10.209l-158.723-23.065L269.452,20.157
			c-2.526-5.12-7.741-8.361-13.45-8.361c-5.71,0-10.924,3.241-13.451,8.361l-70.988,143.827l-158.72,23.065
			c-5.649,0.82-10.344,4.778-12.108,10.208c-1.765,5.431-0.293,11.392,3.796,15.377l114.848,111.954L92.271,482.671
			c-0.966,5.628,1.348,11.314,5.967,14.671c2.613,1.898,5.708,2.864,8.818,2.864c2.388,0,4.784-0.569,6.978-1.723l141.967-74.638
			l141.961,74.637c5.055,2.657,11.178,2.215,15.797-1.141c4.619-3.356,6.934-9.044,5.969-14.672l-27.117-158.081l114.861-111.955
			C511.56,208.649,513.033,202.688,511.267,197.258z"/>
	  </g>
  </symbol>
</svg>
